<?xml version="1.0" encoding="UTF-8" standalone="no"?>
<!-- Created with Inkscape (http://www.inkscape.org/) -->

<svg
   xmlns:dc="http://purl.org/dc/elements/1.1/"
   xmlns:cc="http://creativecommons.org/ns#"
   xmlns:rdf="http://www.w3.org/1999/02/22-rdf-syntax-ns#"
   xmlns:svg="http://www.w3.org/2000/svg"
   xmlns="http://www.w3.org/2000/svg"
   xmlns:sodipodi="http://sodipodi.sourceforge.net/DTD/sodipodi-0.dtd"
   xmlns:inkscape="http://www.inkscape.org/namespaces/inkscape"
   width="24"
   height="24"
   viewBox="0 0 6.349999855 6.35000018"
   version="1.1"
   id="svg20037"
   inkscape:version="0.92.2 (5c3e80d, 2017-08-06)"
   sodipodi:docname="act.svg">
  <defs
     id="defs20031" />
  <sodipodi:namedview
     id="base"
     pagecolor="#ffffff"
     bordercolor="#666666"
     borderopacity="1.0"
     inkscape:pageopacity="0.0"
     inkscape:pageshadow="2"
     inkscape:zoom="5.599999988"
     inkscape:cx="-48.14367828"
     inkscape:cy="-0.5203945014"
     inkscape:document-units="px"
     inkscape:current-layer="layer1"
     showgrid="false"
     units="px"
     inkscape:window-width="1920"
     inkscape:window-height="1017"
     inkscape:window-x="-8"
     inkscape:window-y="-8"
     inkscape:window-maximized="1" />
  <metadata
     id="metadata20034">
    <rdf:RDF>
      <cc:Work
         rdf:about="">
        <dc:format>image/svg+xml</dc:format>
        <dc:type
           rdf:resource="http://purl.org/dc/dcmitype/StillImage" />
        <dc:title></dc:title>
      </cc:Work>
    </rdf:RDF>
  </metadata>
  <g
     inkscape:label="Capa 1"
     inkscape:groupmode="layer"
     id="layer1"
     transform="translate(0,-290.649984)">
    <g
       display="none"
       id="g9991"
       style="display:none;fill:#ff00ff;stroke-width:1"
       transform="matrix(0.264583334,0,0,0.264583334,0,290.649984)">
      <g
         id="g9983"
         style="fill:#ff00ff;stroke-width:1" />
      <g
         id="g9989"
         display="inline"
         style="display:inline;fill:#ff00ff;stroke-width:1">
        <path
           inkscape:connector-curvature="0"
           id="path9985"
           d="m 12,12 c 2.21,0 4,-1.79 4,-4 C 16,5.79 14.21,4 12,4 9.79,4 8,5.79 8,8 c 0,2.21 1.79,4 4,4 z m 0,-6 c 1.1,0 2,0.9 2,2 0,1.1 -0.9,2 -2,2 -1.1,0 -2,-0.9 -2,-2 0,-1.1 0.9,-2 2,-2 z"
           style="fill:#ff00ff;stroke-width:1" />
        <path
           inkscape:connector-curvature="0"
           id="path9987"
           d="m 12,13 c -2.67,0 -8,1.34 -8,4 v 2 c 0,0.55 0.45,1 1,1 h 14 c 0.55,0 1,-0.45 1,-1 v -2 c 0,-2.66 -5.33,-4 -8,-4 z m 6,5 H 6 V 17.01 C 6.2,16.29 9.3,15 12,15 c 2.7,0 5.8,1.29 6,2 z"
           style="fill:#ff00ff;stroke-width:1" />
      </g>
    </g>
    <g
       display="none"
       id="g10001"
       style="display:none;fill:#ff00ff;stroke-width:1"
       transform="matrix(0.264583334,0,0,0.264583334,0,290.649984)">
      <g
         id="g9993"
         style="fill:#ff00ff;stroke-width:1" />
      <g
         id="g9999"
         display="inline"
         style="display:inline;fill:#ff00ff;stroke-width:1">
        <path
           inkscape:connector-curvature="0"
           id="path9995"
           d="m 12,12 c 2.21,0 4,-1.79 4,-4 C 16,5.79 14.21,4 12,4 9.79,4 8,5.79 8,8 c 0,2.21 1.79,4 4,4 z m 0,-6 c 1.1,0 2,0.9 2,2 0,1.1 -0.9,2 -2,2 -1.1,0 -2,-0.9 -2,-2 0,-1.1 0.9,-2 2,-2 z"
           style="fill:#ff00ff;stroke-width:1" />
        <path
           inkscape:connector-curvature="0"
           id="path9997"
           d="m 12,13 c -2.67,0 -8,1.34 -8,4 v 3 h 16 v -3 c 0,-2.66 -5.33,-4 -8,-4 z m 6,5 H 6 V 17.01 C 6.2,16.29 9.3,15 12,15 c 2.7,0 5.8,1.29 6,2 z"
           style="fill:#ff00ff;stroke-width:1" />
      </g>
    </g>
    <g
       display="none"
       id="g10021"
       style="display:none;fill:#ff00ff;stroke-width:1"
       transform="matrix(0.264583334,0,0,0.264583334,0,290.649984)">
      <g
         id="g10009"
         style="fill:#ff00ff;stroke-width:1" />
      <g
         id="g10019"
         display="inline"
         style="display:inline;fill:#ff00ff;stroke-width:1">
        <circle
           id="circle10011"
           r="2"
           cy="8"
           cx="12"
           style="opacity:0.3;fill:#ff00ff;stroke-width:1" />
        <path
           inkscape:connector-curvature="0"
           id="path10013"
           d="M 12,15 C 9.3,15 6.2,16.29 6,17.01 V 18 h 12 v -1 c -0.2,-0.71 -3.3,-2 -6,-2 z"
           style="opacity:0.3;fill:#ff00ff;stroke-width:1" />
        <path
           inkscape:connector-curvature="0"
           id="path10015"
           d="m 12,12 c 2.21,0 4,-1.79 4,-4 C 16,5.79 14.21,4 12,4 9.79,4 8,5.79 8,8 c 0,2.21 1.79,4 4,4 z m 0,-6 c 1.1,0 2,0.9 2,2 0,1.1 -0.9,2 -2,2 -1.1,0 -2,-0.9 -2,-2 0,-1.1 0.9,-2 2,-2 z"
           style="fill:#ff00ff;stroke-width:1" />
        <path
           inkscape:connector-curvature="0"
           id="path10017"
           d="m 12,13 c -2.67,0 -8,1.34 -8,4 v 3 h 16 v -3 c 0,-2.66 -5.33,-4 -8,-4 z m 6,5 H 6 V 17.01 C 6.2,16.29 9.3,15 12,15 c 2.7,0 5.8,1.29 6,2 z"
           style="fill:#ff00ff;stroke-width:1" />
      </g>
    </g>
    <g
       display="none"
       id="g10031"
       style="display:none;fill:#ff00ff;stroke-width:1"
       transform="matrix(0.264583334,0,0,0.264583334,0,290.649984)">
      <g
         id="g10023"
         style="fill:#ff00ff;stroke-width:1" />
      <g
         id="g10029"
         display="inline"
         style="display:inline;fill:#ff00ff;stroke-width:1">
        <path
           inkscape:connector-curvature="0"
           id="path10025"
           d="m 12,12 c 2.21,0 4,-1.79 4,-4 C 16,5.79 14.21,4 12,4 9.79,4 8,5.79 8,8 c 0,2.21 1.79,4 4,4 z m 0,-6 c 1.1,0 2,0.9 2,2 0,1.1 -0.9,2 -2,2 -1.1,0 -2,-0.9 -2,-2 0,-1.1 0.9,-2 2,-2 z"
           style="fill:#ff00ff;stroke-width:1" />
        <path
           inkscape:connector-curvature="0"
           id="path10027"
           d="m 12,13 c -2.67,0 -8,1.34 -8,4 v 3 h 16 v -3 c 0,-2.66 -5.33,-4 -8,-4 z m 6,5 H 6 V 17.01 C 6.2,16.29 9.3,15 12,15 c 2.7,0 5.8,1.29 6,2 z"
           style="fill:#ff00ff;stroke-width:1" />
      </g>
    </g>
    <g
       id="g887"
       transform="matrix(0.5,0,0,0.5,0,148.499992)"
       style="stroke-width:2">
      <g
         transform="matrix(0.5291666681,0,0,0.5291666681,0,284.299984)"
         style="fill:none;stroke-width:1"
         id="g9981">
        <g
           style="display:none;fill:none;stroke-width:1"
           id="g9977"
           display="none" />
        <path
           style="fill:none;stroke-width:1"
           d="M 0,0 H 24 V 24 H 0 Z"
           id="path9979"
           inkscape:connector-curvature="0" />
      </g>
      <g
         style="stroke-width:3.0009455681"
         transform="matrix(0.6667293515,0,0,0.6661838634,-4.42333394,89.14225476)"
         id="g851">
        <ellipse
           ry="7.943252563"
           rx="7.93675375"
           cy="302.4806519"
           cx="16.1584816"
           id="circle12730"
           style="opacity:1;fill:#ffc61d;fill-opacity:1;fill-rule:evenodd;stroke:none;stroke-width:0.6352002025;stroke-linecap:round;stroke-linejoin:round;stroke-miterlimit:4;stroke-dasharray:none;stroke-dashoffset:0;stroke-opacity:1" />
        <path
           inkscape:connector-curvature="0"
           style="fill:#ffffff;stroke-width:0.7940001488"
           d="m 14.81550307,297.1946262 c -0.82352559,0 -1.48830034,0.6653173 -1.48830034,1.4895189 0,0.1737684 0.0345743,0.3425887 0.0891441,0.4965076 v 0.021341 h -1.22668494 c -0.5457102,0 -0.98735568,0.4468576 -0.98735568,0.9930134 v 1.9860248 c 0.54570995,0 0.98735568,0.4468574 0.98735568,0.9930131 0,0.5461576 -0.44152924,0.9930135 -0.99220022,0.9930135 v 1.9860245 c 0,0.5461578 0.44649002,0.9930134 0.99220022,0.9930134 h 7.93760207 c 0.54570995,0 0.99219998,-0.4468556 0.99219998,-0.9930134 v -1.9860245 c -0.54570995,0 -0.99219998,-0.4468559 -0.99219998,-0.9930135 0,-0.5461557 0.44649003,-0.9930131 0.99219998,-0.9930131 v -1.9860248 c 0,-0.5461558 -0.44649003,-0.9930134 -0.99219998,-0.9930134 h -0.93600151 v -0.021341 c 0.0545699,-0.1539164 0.0891416,-0.3227307 0.0891416,-0.4965076 0,-0.8242016 -0.66477376,-1.4895189 -1.48830034,-1.4895189 -0.52090503,0 -0.97235609,0.267922 -1.24025016,0.6700892 l -0.24804916,0.3326202 -0.24804918,-0.3374672 c -0.26789407,-0.3972056 -0.71934688,-0.6652422 -1.24025214,-0.6652422 z m 0,0.9930134 c 0.2728556,0 0.49610011,0.2234268 0.49610011,0.4965055 0,0.2730788 -0.22324401,0.4965076 -0.49610011,0.4965076 -0.2728546,0 -0.49610012,-0.2234293 -0.49610012,-0.4965076 0,-0.2730787 0.22324652,-0.4965055 0.49610012,-0.4965055 z m 2.97660068,0 c 0.2728556,0 0.49610012,0.2234268 0.49610012,0.4965055 0,0.2730788 -0.22324402,0.4965076 -0.49610012,0.4965076 -0.27285435,0 -0.49610011,-0.2234293 -0.49610011,-0.4965076 0,-0.2730787 0.22324651,-0.4965055 0.49610011,-0.4965055 z m -5.60244284,2.0073592 h 2.65006638 l -1.01642445,1.383818 0.80325599,0.5808739 1.18114446,-1.6087969 0.26161541,-0.355895 h 0.46896992 l 0.2616149,0.355895 1.18114497,1.6087969 0.80325549,-0.5808739 -1.0164237,-1.383818 h 2.3593827 v 1.2606613 c -0.59035925,0.3425886 -0.99220023,0.9885134 -0.99220023,1.7183767 0,0.7298653 0.40184098,1.3757864 0.99220023,1.7183767 v 1.2606613 h -7.93760207 v -1.2606613 c 0.59035925,-0.3425903 0.99220048,-0.9885114 0.99220048,-1.7183767 0,-0.7348287 -0.39699693,-1.3757881 -0.98735593,-1.7183767 z m 2.02509613,2.1896708 a 0.7892904828,0.789936767 0 0 0 -0.7887216,0.7903374 0.7892904828,0.789936767 0 0 0 0.7887216,0.7893672 0.7892904828,0.789936767 0 0 0 0.78969052,-0.7893672 0.7892904828,0.789936767 0 0 0 -0.78969052,-0.7903374 z m 1.93013956,0 a 0.7892904828,0.789936767 0 0 0 -0.78969052,0.7903374 0.7892904828,0.789936767 0 0 0 0.78969052,0.7893672 0.7892904828,0.789936767 0 0 0 0.7887216,-0.7893672 0.7892904828,0.789936767 0 0 0 -0.7887216,-0.7903374 z m 1.92917064,0 a 0.7892904828,0.789936767 0 0 0 -0.78969051,0.7903374 0.7892904828,0.789936767 0 0 0 0.78969051,0.7893672 0.7892904828,0.789936767 0 0 0 0.78872136,-0.7893672 0.7892904828,0.789936767 0 0 0 -0.78872136,-0.7903374 z"
           id="path12732" />
      </g>
    </g>
  </g>
</svg>
