<?xml version="1.0" encoding="UTF-8" standalone="no"?>
<!-- Created with Inkscape (http://www.inkscape.org/) -->

<svg
   xmlns:dc="http://purl.org/dc/elements/1.1/"
   xmlns:cc="http://creativecommons.org/ns#"
   xmlns:rdf="http://www.w3.org/1999/02/22-rdf-syntax-ns#"
   xmlns:svg="http://www.w3.org/2000/svg"
   xmlns="http://www.w3.org/2000/svg"
   xmlns:sodipodi="http://sodipodi.sourceforge.net/DTD/sodipodi-0.dtd"
   xmlns:inkscape="http://www.inkscape.org/namespaces/inkscape"
   width="24"
   height="24"
   viewBox="0 0 6.349999854 6.350000179"
   version="1.1"
   id="svg20037"
   inkscape:version="0.92.2 (5c3e80d, 2017-08-06)"
   sodipodi:docname="client.svg">
  <defs
     id="defs20031" />
  <sodipodi:namedview
     id="base"
     pagecolor="#ffffff"
     bordercolor="#666666"
     borderopacity="1.0"
     inkscape:pageopacity="0.0"
     inkscape:pageshadow="2"
     inkscape:zoom="5.599999988"
     inkscape:cx="-75.64229335"
     inkscape:cy="-9.464581153"
     inkscape:document-units="px"
     inkscape:current-layer="layer1"
     showgrid="false"
     units="px"
     inkscape:window-width="1920"
     inkscape:window-height="1017"
     inkscape:window-x="1912"
     inkscape:window-y="-8"
     inkscape:window-maximized="1" />
  <metadata
     id="metadata20034">
    <rdf:RDF>
      <cc:Work
         rdf:about="">
        <dc:format>image/svg+xml</dc:format>
        <dc:type
           rdf:resource="http://purl.org/dc/dcmitype/StillImage" />
        <dc:title></dc:title>
      </cc:Work>
    </rdf:RDF>
  </metadata>
  <g
     inkscape:label="Capa 1"
     inkscape:groupmode="layer"
     id="layer1"
     transform="translate(0,-290.649984)">
    <g
       style="stroke-width:1"
       id="g10033"
       transform="matrix(0.264583334,0,0,0.264583334,0,290.649984)">
      <g
         style="stroke-width:1"
         id="g9981">
        <g
           style="display:none;stroke-width:1"
           id="g9977"
           display="none" />
        <path
           style="fill:none;stroke-width:1"
           d="M 0,0 H 24 V 24 H 0 Z"
           id="path9979"
           inkscape:connector-curvature="0" />
      </g>
      <g
         style="display:none;stroke-width:1"
         id="g9991"
         display="none">
        <g
           style="stroke-width:1"
           id="g9983" />
        <g
           style="display:inline;stroke-width:1"
           display="inline"
           id="g9989">
          <path
             style="stroke-width:1"
             d="m 12,12 c 2.21,0 4,-1.79 4,-4 C 16,5.79 14.21,4 12,4 9.79,4 8,5.79 8,8 c 0,2.21 1.79,4 4,4 z m 0,-6 c 1.1,0 2,0.9 2,2 0,1.1 -0.9,2 -2,2 -1.1,0 -2,-0.9 -2,-2 0,-1.1 0.9,-2 2,-2 z"
             id="path9985"
             inkscape:connector-curvature="0" />
          <path
             style="stroke-width:1"
             d="m 12,13 c -2.67,0 -8,1.34 -8,4 v 2 c 0,0.55 0.45,1 1,1 h 14 c 0.55,0 1,-0.45 1,-1 v -2 c 0,-2.66 -5.33,-4 -8,-4 z m 6,5 H 6 V 17.01 C 6.2,16.29 9.3,15 12,15 c 2.7,0 5.8,1.29 6,2 z"
             id="path9987"
             inkscape:connector-curvature="0" />
        </g>
      </g>
      <g
         style="display:none;stroke-width:1"
         id="g10001"
         display="none">
        <g
           style="stroke-width:1"
           id="g9993" />
        <g
           style="display:inline;stroke-width:1"
           display="inline"
           id="g9999">
          <path
             style="stroke-width:1"
             d="m 12,12 c 2.21,0 4,-1.79 4,-4 C 16,5.79 14.21,4 12,4 9.79,4 8,5.79 8,8 c 0,2.21 1.79,4 4,4 z m 0,-6 c 1.1,0 2,0.9 2,2 0,1.1 -0.9,2 -2,2 -1.1,0 -2,-0.9 -2,-2 0,-1.1 0.9,-2 2,-2 z"
             id="path9995"
             inkscape:connector-curvature="0" />
          <path
             style="stroke-width:1"
             d="m 12,13 c -2.67,0 -8,1.34 -8,4 v 3 h 16 v -3 c 0,-2.66 -5.33,-4 -8,-4 z m 6,5 H 6 V 17.01 C 6.2,16.29 9.3,15 12,15 c 2.7,0 5.8,1.29 6,2 z"
             id="path9997"
             inkscape:connector-curvature="0" />
        </g>
      </g>
      <g
         style="stroke-width:1"
         id="g10007">
        <g
           style="display:none;stroke-width:1"
           id="g10003"
           display="none" />
        <path
           style="fill:#333333;stroke-width:1"
           d="m 12,6 c 1.1,0 2,0.9 2,2 0,1.1 -0.9,2 -2,2 -1.1,0 -2,-0.9 -2,-2 0,-1.1 0.9,-2 2,-2 m 0,9 c 2.7,0 5.8,1.29 6,2 v 1 H 6 V 17.01 C 6.2,16.29 9.3,15 12,15 M 12,4 C 9.79,4 8,5.79 8,8 c 0,2.21 1.79,4 4,4 2.21,0 4,-1.79 4,-4 0,-2.21 -1.79,-4 -4,-4 z m 0,9 c -2.67,0 -8,1.34 -8,4 v 3 h 16 v -3 c 0,-2.66 -5.33,-4 -8,-4 z"
           id="path10005"
           inkscape:connector-curvature="0" />
      </g>
      <g
         style="display:none;stroke-width:1"
         id="g10021"
         display="none">
        <g
           style="stroke-width:1"
           id="g10009" />
        <g
           style="display:inline;stroke-width:1"
           display="inline"
           id="g10019">
          <circle
             style="opacity:0.3;stroke-width:1"
             cx="12"
             cy="8"
             r="2"
             id="circle10011" />
          <path
             style="opacity:0.3;stroke-width:1"
             d="M 12,15 C 9.3,15 6.2,16.29 6,17.01 V 18 h 12 v -1 c -0.2,-0.71 -3.3,-2 -6,-2 z"
             id="path10013"
             inkscape:connector-curvature="0" />
          <path
             style="stroke-width:1"
             d="m 12,12 c 2.21,0 4,-1.79 4,-4 C 16,5.79 14.21,4 12,4 9.79,4 8,5.79 8,8 c 0,2.21 1.79,4 4,4 z m 0,-6 c 1.1,0 2,0.9 2,2 0,1.1 -0.9,2 -2,2 -1.1,0 -2,-0.9 -2,-2 0,-1.1 0.9,-2 2,-2 z"
             id="path10015"
             inkscape:connector-curvature="0" />
          <path
             style="stroke-width:1"
             d="m 12,13 c -2.67,0 -8,1.34 -8,4 v 3 h 16 v -3 c 0,-2.66 -5.33,-4 -8,-4 z m 6,5 H 6 V 17.01 C 6.2,16.29 9.3,15 12,15 c 2.7,0 5.8,1.29 6,2 z"
             id="path10017"
             inkscape:connector-curvature="0" />
        </g>
      </g>
      <g
         style="display:none;stroke-width:1"
         id="g10031"
         display="none">
        <g
           style="stroke-width:1"
           id="g10023" />
        <g
           style="display:inline;stroke-width:1"
           display="inline"
           id="g10029">
          <path
             style="stroke-width:1"
             d="m 12,12 c 2.21,0 4,-1.79 4,-4 C 16,5.79 14.21,4 12,4 9.79,4 8,5.79 8,8 c 0,2.21 1.79,4 4,4 z m 0,-6 c 1.1,0 2,0.9 2,2 0,1.1 -0.9,2 -2,2 -1.1,0 -2,-0.9 -2,-2 0,-1.1 0.9,-2 2,-2 z"
             id="path10025"
             inkscape:connector-curvature="0" />
          <path
             style="stroke-width:1"
             d="m 12,13 c -2.67,0 -8,1.34 -8,4 v 3 h 16 v -3 c 0,-2.66 -5.33,-4 -8,-4 z m 6,5 H 6 V 17.01 C 6.2,16.29 9.3,15 12,15 c 2.7,0 5.8,1.29 6,2 z"
             id="path10027"
             inkscape:connector-curvature="0" />
        </g>
      </g>
    </g>
  </g>
</svg>
