<?xml version="1.0" encoding="UTF-8" standalone="no"?>
<!-- Created with Inkscape (http://www.inkscape.org/) -->

<svg
   xmlns:dc="http://purl.org/dc/elements/1.1/"
   xmlns:cc="http://creativecommons.org/ns#"
   xmlns:rdf="http://www.w3.org/1999/02/22-rdf-syntax-ns#"
   xmlns:svg="http://www.w3.org/2000/svg"
   xmlns="http://www.w3.org/2000/svg"
   xmlns:sodipodi="http://sodipodi.sourceforge.net/DTD/sodipodi-0.dtd"
   xmlns:inkscape="http://www.inkscape.org/namespaces/inkscape"
   width="199.5"
   height="36"
   viewBox="0 0 52.78437378 9.52500027"
   version="1.1"
   id="svg20037"
   inkscape:version="0.92.2 (5c3e80d, 2017-08-06)"
   sodipodi:docname="service.svg">
  <defs
     id="defs20031">
    <filter
       height="1.095999956"
       y="-0.04800000042"
       width="1.095999956"
       x="-0.04800000042"
       id="filter3829-3-6"
       style="color-interpolation-filters:sRGB">
      <feGaussianBlur
         id="feGaussianBlur3831-4"
         stdDeviation="0.2090208244" />
    </filter>
    <filter
       height="1.095999956"
       y="-0.04800000042"
       width="1.095999956"
       x="-0.04800000042"
       id="filter9302"
       style="color-interpolation-filters:sRGB">
      <feGaussianBlur
         id="feGaussianBlur9300"
         stdDeviation="0.2090208244" />
    </filter>
    <filter
       height="1.095999956"
       y="-0.04800000042"
       width="1.095999956"
       x="-0.04800000042"
       id="filter9306"
       style="color-interpolation-filters:sRGB">
      <feGaussianBlur
         id="feGaussianBlur9304"
         stdDeviation="0.2090208244" />
    </filter>
    <filter
       height="1.095999956"
       y="-0.04800000042"
       width="1.095999956"
       x="-0.04800000042"
       id="filter9310"
       style="color-interpolation-filters:sRGB">
      <feGaussianBlur
         id="feGaussianBlur9308"
         stdDeviation="0.2090208244" />
    </filter>
  </defs>
  <sodipodi:namedview
     id="base"
     pagecolor="#ffffff"
     bordercolor="#666666"
     borderopacity="1.0"
     inkscape:pageopacity="0.0"
     inkscape:pageshadow="2"
     inkscape:zoom="7.919595932"
     inkscape:cx="40.06736925"
     inkscape:cy="20.00757996"
     inkscape:document-units="px"
     inkscape:current-layer="layer1"
     showgrid="false"
     units="px"
     inkscape:window-width="1920"
     inkscape:window-height="1017"
     inkscape:window-x="-8"
     inkscape:window-y="-8"
     inkscape:window-maximized="1" />
  <metadata
     id="metadata20034">
    <rdf:RDF>
      <cc:Work
         rdf:about="">
        <dc:format>image/svg+xml</dc:format>
        <dc:type
           rdf:resource="http://purl.org/dc/dcmitype/StillImage" />
        <dc:title></dc:title>
      </cc:Work>
    </rdf:RDF>
  </metadata>
  <g
     inkscape:label="Capa 1"
     inkscape:groupmode="layer"
     id="layer1"
     transform="translate(0,-287.474984)">
    <path
       style="opacity:1;fill:#cccccc;fill-opacity:1;fill-rule:evenodd;stroke:none;stroke-width:0.25;stroke-linecap:round;stroke-linejoin:round;stroke-miterlimit:4;stroke-dasharray:none;stroke-dashoffset:0;stroke-opacity:1"
       d="M 15.12109375 3.814453125 C 7.262356914 3.814453125 0.935546875 10.14126316 0.935546875 18 C 0.935546875 25.85873684 7.262356914 32.18554688 15.12109375 32.18554688 L 172.8085938 32.18554688 C 180.6673306 32.18554688 186.9941406 25.85873684 186.9941406 18 C 186.9941406 10.14126316 180.6673306 3.814453125 172.8085938 3.814453125 L 15.12109375 3.814453125 z "
       transform="matrix(0.264583334,0,0,0.264583334,0,287.474984)"
       id="rect13045" />
    <text
	   xml:space="preserve"
	   style="font-style:normal;font-variant:normal;font-weight:normal;font-stretch:normal;font-size:5.725399971px;line-height:1.25;font-family:Rubik;-inkscape-font-specification:Rubik;letter-spacing:0px;word-spacing:0px;fill:#333333;fill-opacity:1;stroke:none;stroke-width:0.2645833492"
       id="text13049"
	   x="3"
       y="294.2"
       transform="scale(1.001028686,0.9989723711)"><tspan
         style="font-style:normal;font-variant:normal;font-weight:normal;font-stretch:normal;font-size:5.009458065px;font-family:Roboto;-inkscape-font-specification:Roboto;fill:#333333;fill-opacity:1;stroke-width:0.2645833492"
	   x="3"
       y="294.2"
         id="tspan13047">{TEXT}</tspan></text>
    <g
       style="stroke-width:0.704223454"
       transform="matrix(1.421464591,0,0,1.418544616,-871.9553425,1122.828683)"
       id="g13065">
      <circle
         transform="matrix(0.579592893,0,0,0.5798986375,568.4382247,-963.0490032)"
         r="5.225520611"
         cy="651.067749"
         cx="135.9514923"
         id="circle13051"
         style="opacity:1;fill:#b3b3b3;fill-opacity:1;fill-rule:evenodd;stroke:none;stroke-width:0.2571138442;stroke-linecap:round;stroke-linejoin:round;stroke-miterlimit:4;stroke-dasharray:none;stroke-dashoffset:0;stroke-opacity:0.5113350064;filter:url(#filter3829-3-6)" />
      <circle
         r="3.174999952"
         cy="-585.6974487"
         cx="646.9862061"
         id="circle13053"
         style="opacity:1;fill:#ffc61d;fill-opacity:1;fill-rule:evenodd;stroke:none;stroke-width:0.1490606368;stroke-linecap:round;stroke-linejoin:round;stroke-miterlimit:4;stroke-dasharray:none;stroke-dashoffset:0;stroke-opacity:1" />
      <g
         style="stroke-width:0.9388642907"
         id="g13063"
         transform="matrix(0.7500801363,0,0,0.7500801363,134.7907259,282.3137475)">
        <g
           transform="matrix(0.2645833341,0,0,0.2645833341,679.679345,-1160.399614)"
           id="g13059"
           style="fill:#f4d7d7;stroke-width:0.9388642907">
          <g
             display="none"
             id="g13055"
             style="display:none;fill:#f4d7d7;stroke-width:0.9388642907" />
          <path
             id="path13057"
             d="M 0,0 H 24 V 24 H 0 Z"
             style="fill:none;stroke-width:0.9388642907"
             inkscape:connector-curvature="0" />
        </g>
        <path
           id="path13061"
           d="m 682.138109,-1160.041479 c -0.439208,0 -0.79375,0.354541 -0.79375,0.79375 0,0.0926 0.018439,0.182562 0.047543,0.264584 v 0.01137 h -0.6542236 c -0.2910417,0 -0.526583,0.238126 -0.526583,0.529167 v 1.058333 c 0.2910417,0 0.526583,0.238126 0.526583,0.529167 0,0.291042 -0.2354792,0.529167 -0.5291667,0.529167 v 1.058333 c 0,0.291042 0.238125,0.529167 0.5291667,0.529167 h 4.2333334 c 0.2910416,0 0.5291666,-0.238125 0.5291666,-0.529167 v -1.058333 c -0.2910416,0 -0.5291666,-0.238125 -0.5291666,-0.529167 0,-0.291041 0.238125,-0.529167 0.5291666,-0.529167 v -1.058333 c 0,-0.291041 -0.238125,-0.529167 -0.5291666,-0.529167 h -0.4991944 v -0.01137 c 0.029104,-0.08202 0.047542,-0.17198 0.047542,-0.264584 0,-0.439209 -0.3545414,-0.79375 -0.79375,-0.79375 -0.2778125,0 -0.5185833,0.142773 -0.6614583,0.357084 l -0.1322917,0.17725 -0.1322916,-0.179833 c -0.142875,-0.211667 -0.3836467,-0.354501 -0.6614588,-0.354501 z m 0,0.529167 c 0.1455211,0 0.2645834,0.119062 0.2645834,0.264583 0,0.145521 -0.1190623,0.264584 -0.2645834,0.264584 -0.1455205,0 -0.2645833,-0.119063 -0.2645833,-0.264584 0,-0.145521 0.1190628,-0.264583 0.2645833,-0.264583 z m 1.5875,0 c 0.1455211,0 0.2645834,0.119062 0.2645834,0.264583 0,0.145521 -0.1190623,0.264584 -0.2645834,0.264584 -0.1455205,0 -0.2645833,-0.119063 -0.2645833,-0.264584 0,-0.145521 0.1190628,-0.264583 0.2645833,-0.264583 z m -2.9879311,1.069702 h 1.4133505 l -0.542086,0.737423 0.4283977,0.309542 0.6299356,-0.857312 0.1395264,-0.189653 h 0.2501141 l 0.1395262,0.189653 0.6299358,0.857312 0.4283975,-0.309542 -0.5420857,-0.737423 h 1.2583213 v 0.671794 c -0.3148542,0.182562 -0.5291667,0.526769 -0.5291667,0.915706 0,0.388938 0.2143125,0.733143 0.5291667,0.915706 v 0.671794 h -4.2333334 v -0.671794 c 0.3148542,-0.182563 0.5291667,-0.526768 0.5291667,-0.915706 0,-0.391583 -0.2117289,-0.733144 -0.526583,-0.915706 z m 1.0800374,1.166854 a 0.4209495186,0.4209495186 0 0 0 -0.4206462,0.421163 0.4209495186,0.4209495186 0 0 0 0.4206462,0.420646 0.4209495186,0.4209495186 0 0 0 0.4211629,-0.420646 0.4209495186,0.4209495186 0 0 0 -0.4211629,-0.421163 z m 1.0293945,0 a 0.4209495186,0.4209495186 0 0 0 -0.4211629,0.421163 0.4209495186,0.4209495186 0 0 0 0.4211629,0.420646 0.4209495186,0.4209495186 0 0 0 0.4206462,-0.420646 0.4209495186,0.4209495186 0 0 0 -0.4206462,-0.421163 z m 1.0288778,0 a 0.4209495186,0.4209495186 0 0 0 -0.4211629,0.421163 0.4209495186,0.4209495186 0 0 0 0.4211629,0.420646 0.4209495186,0.4209495186 0 0 0 0.420646,-0.420646 0.4209495186,0.4209495186 0 0 0 -0.420646,-0.421163 z"
           style="fill:#ffffff;stroke-width:0.2484078407"
           inkscape:connector-curvature="0" />
      </g>
    </g>
    <rect
       style="opacity:1;fill:none;fill-opacity:0.5301204906;fill-rule:nonzero;stroke:none;stroke-width:0.5291666389;stroke-linecap:round;stroke-linejoin:round;stroke-miterlimit:4;stroke-dasharray:none;stroke-dashoffset:0;stroke-opacity:1"
       id="rect1105"
       width="52.78437424"
       height="9.524999619"
       x="0"
       y="287.4750061" />
  </g>
</svg>
