<?xml version="1.0" encoding="UTF-8" standalone="no"?>
<!-- Created with Inkscape (http://www.inkscape.org/) -->

<svg
   xmlns:dc="http://purl.org/dc/elements/1.1/"
   xmlns:cc="http://creativecommons.org/ns#"
   xmlns:rdf="http://www.w3.org/1999/02/22-rdf-syntax-ns#"
   xmlns:svg="http://www.w3.org/2000/svg"
   xmlns="http://www.w3.org/2000/svg"
   xmlns:sodipodi="http://sodipodi.sourceforge.net/DTD/sodipodi-0.dtd"
   xmlns:inkscape="http://www.inkscape.org/namespaces/inkscape"
   id="svg20037"
   height="36"
   width="199.5"
   version="1.1"
   viewBox="0 0 52.78437378 9.52500027"
   sodipodi:docname="request.svg"
   inkscape:version="0.92.2 (5c3e80d, 2017-08-06)">
  <sodipodi:namedview
     pagecolor="#ffffff"
     bordercolor="#666666"
     borderopacity="1"
     objecttolerance="10"
     gridtolerance="10"
     guidetolerance="10"
     inkscape:pageopacity="0"
     inkscape:pageshadow="2"
     inkscape:window-width="1920"
     inkscape:window-height="1017"
     id="namedview35"
     showgrid="false"
     inkscape:zoom="12.07929778"
     inkscape:cx="117.8489178"
     inkscape:cy="6.453746537"
     inkscape:window-x="-8"
     inkscape:window-y="-8"
     inkscape:window-maximized="1"
     inkscape:current-layer="svg20037" />
  <defs
     id="defs20031">
    <filter
       id="filter3829-3-6"
       style="color-interpolation-filters:sRGB"
       height="1.096"
       width="1.096"
       y="-0.048"
       x="-0.048">
      <feGaussianBlur
         id="feGaussianBlur3831-4"
         stdDeviation="0.2090208244" />
    </filter>
  </defs>
  <metadata
     id="metadata20034">
    <rdf:RDF>
      <cc:Work
         rdf:about="">
        <dc:format>image/svg+xml</dc:format>
        <dc:type
           rdf:resource="http://purl.org/dc/dcmitype/StillImage" />
        <dc:title></dc:title>
      </cc:Work>
    </rdf:RDF>
  </metadata>
  <path
     style="fill:#cccccc;fill-rule:evenodd;stroke-width:3.7795276642"
     d="M 15.12109375 3.814453125 C 7.262356914 3.814453125 0.935546875 10.14126316 0.935546875 18 C 0.935546875 25.85873684 7.262356914 32.18554688 15.12109375 32.18554688 L 172.7441406 32.22070312 C 180.6224916 32.22070312 186.9648437 25.87824665 186.9648438 18 C 186.9648438 10.12175335 180.6224916 3.779296875 172.7441406 3.779296875 L 89.46679688 3.779296875 z "
     transform="scale(0.264583334)"
     id="rect923" />
  <text
     x="3"
     y="6.4"
     font-size="5.7387px"
     line-height="1.25"
     transform="scale(1.00088037,0.9991204044)"
     xml:space="preserve"
     style="font-size:5.7388124466px;line-height:1.25;font-family:Rubik;letter-spacing:0px;word-spacing:0px;fill:#333333;stroke-width:1.0000196695"
     id="text13073"><tspan
       style="font-size:5.0211987495px;font-family:Roboto;fill:#333333;stroke-width:0.264585197"
       x="3"
       y="6.4"
       font-size="5.0211px"
       id="tspan13071">{TEXT}</tspan></text>
  <circle
     style="fill:#b3b3b3;fill-rule:evenodd;filter:url(#filter3829-3-6)"
     r="5.225500107"
     cx="135.9499969"
     cy="651.0700073"
     transform="matrix(0.82564,0,0,0.82466,-64.191,-532.1)"
     id="circle13075" />
  <ellipse
     id="circle13077"
     cx="47.70294571"
     cy="4.455571175"
     style="fill:#ef7e20;fill-rule:evenodd;stroke-width:1.000020504"
     rx="4.522853851"
     ry="4.51523447" />
  <g
     id="g13130"
     transform="matrix(0.28270373,0,0,0.282227486,44.305125,1.063481)"
     style="stroke-width:0.9366999865">
    <g
       id="g13084">
      <path
         id="path13082"
         d="M 0,0 H 24 V 24 H 0 Z"
         inkscape:connector-curvature="0"
         style="fill:none;stroke-width:0.9366999865" />
    </g>
    <g
       id="g13090"
       display="none"
       style="display:none">
      <path
         id="path13088"
         d="M 22,12 C 22,6.48 17.52,2 12,2 6.48,2 2,6.48 2,12 c 0,5.52 4.48,10 10,10 5.52,0 10,-4.48 10,-10 z m -7,-5.5 3.15,3.15 c 0.2,0.2 0.2,0.51 0,0.71 L 15,13.5 V 11 H 11 V 9 h 4 z m -6,11 -3.15,-3.15 c -0.2,-0.2 -0.2,-0.51 0,-0.71 L 9,10.5 V 13 h 4 v 2 H 9 Z"
         display="inline"
         inkscape:connector-curvature="0"
         style="display:inline;stroke-width:0.9366999865" />
    </g>
    <g
       id="g13096"
       display="none"
       style="display:none">
      <path
         id="path13094"
         d="M 22,12 C 22,6.48 17.52,2 12,2 6.48,2 2,6.48 2,12 2,17.52 6.48,22 12,22 17.52,22 22,17.52 22,12 Z M 15,6.5 18.5,10 15,13.5 V 11 H 11 V 9 h 4 z M 9,17.5 5.5,14 9,10.5 V 13 h 4 v 2 H 9 Z"
         display="inline"
         inkscape:connector-curvature="0"
         style="display:inline;stroke-width:0.9366999865" />
    </g>
    <g
       id="g13108">
      <g
         id="g13106"
         style="fill:#ffffff;stroke-width:0.9366999865">
        <path
           id="path13100"
           d="M 12,2 C 6.48,2 2,6.48 2,12 2,17.52 6.48,22 12,22 17.52,22 22,17.52 22,12 22,6.48 17.52,2 12,2 Z m 0,18 C 7.59,20 4,16.41 4,12 4,7.59 7.59,4 12,4 c 4.41,0 8,3.59 8,8 0,4.41 -3.59,8 -8,8 z"
           inkscape:connector-curvature="0" />
        <polygon
           id="polygon13102"
           points="11,11 15,11 15,13.5 18.5,10 15,6.5 15,9 11,9 " />
        <polygon
           id="polygon13104"
           points="9,15 13,15 13,13 9,13 9,10.5 5.5,14 9,17.5 " />
      </g>
    </g>
    <g
       id="g13122"
       display="none"
       style="display:none">
      <g
         id="g13120"
         display="inline"
         style="display:inline;stroke-width:0.9366999865">
        <path
           id="path13112"
           d="m 12,4 c -4.41,0 -8,3.59 -8,8 0,4.41 3.59,8 8,8 4.41,0 8,-3.59 8,-8 0,-4.41 -3.59,-8 -8,-8 z m 1,11 H 9 v 2.5 L 5.5,14 9,10.5 V 13 h 4 z m 2,-1.5 V 11 H 11 V 9 h 4 V 6.5 l 3.5,3.5 z"
           inkscape:connector-curvature="0"
           style="opacity:0.3" />
        <path
           id="path13114"
           d="M 12,2 C 6.48,2 2,6.48 2,12 2,17.52 6.48,22 12,22 17.52,22 22,17.52 22,12 22,6.48 17.52,2 12,2 Z m 0,18 C 7.59,20 4,16.41 4,12 4,7.59 7.59,4 12,4 c 4.41,0 8,3.59 8,8 0,4.41 -3.59,8 -8,8 z"
           inkscape:connector-curvature="0" />
        <polygon
           id="polygon13116"
           points="11,11 15,11 15,13.5 18.5,10 15,6.5 15,9 11,9 " />
        <polygon
           id="polygon13118"
           points="9,15 13,15 13,13 9,13 9,10.5 5.5,14 9,17.5 " />
      </g>
    </g>
    <g
       id="g13128"
       display="none"
       style="display:none">
      <path
         id="path13126"
         d="M 22,12 C 22,6.48 17.52,2 12,2 6.48,2 2,6.48 2,12 2,17.52 6.48,22 12,22 17.52,22 22,17.52 22,12 Z M 15,6.5 18.5,10 15,13.5 V 11 H 11 V 9 h 4 z M 9,17.5 5.5,14 9,10.5 V 13 h 4 v 2 H 9 Z"
         display="inline"
         inkscape:connector-curvature="0"
         style="display:inline;stroke-width:0.9366999865" />
    </g>
  </g>
  <rect
     style="fill:none"
     x="0"
     y="0.01001098659"
     width="52.7840004"
     height="9.524999619"
     id="rect1105" />
</svg>
