<?xml version="1.0" encoding="UTF-8" standalone="no"?>
<!-- Created with Inkscape (http://www.inkscape.org/) -->

<svg
   xmlns:dc="http://purl.org/dc/elements/1.1/"
   xmlns:cc="http://creativecommons.org/ns#"
   xmlns:rdf="http://www.w3.org/1999/02/22-rdf-syntax-ns#"
   xmlns:svg="http://www.w3.org/2000/svg"
   xmlns="http://www.w3.org/2000/svg"
   xmlns:sodipodi="http://sodipodi.sourceforge.net/DTD/sodipodi-0.dtd"
   xmlns:inkscape="http://www.inkscape.org/namespaces/inkscape"
   width="56"
   height="56"
   viewBox="0 0 14.81666633 14.81666709"
   version="1.1"
   id="svg8912"
   inkscape:version="0.92.2 (5c3e80d, 2017-08-06)"
   sodipodi:docname="logo_top_transfers.svg">
  <defs
     id="defs8906" />
  <sodipodi:namedview
     id="base"
     pagecolor="#ffffff"
     bordercolor="#666666"
     borderopacity="1.0"
     inkscape:pageopacity="0.0"
     inkscape:pageshadow="2"
     inkscape:zoom="3.959797967"
     inkscape:cx="8.134843492"
     inkscape:cy="14.35028848"
     inkscape:document-units="px"
     inkscape:current-layer="layer1"
     showgrid="false"
     units="px"
     inkscape:window-width="1920"
     inkscape:window-height="1017"
     inkscape:window-x="1912"
     inkscape:window-y="-8"
     inkscape:window-maximized="1" />
  <metadata
     id="metadata8909">
    <rdf:RDF>
      <cc:Work
         rdf:about="">
        <dc:format>image/svg+xml</dc:format>
        <dc:type
           rdf:resource="http://purl.org/dc/dcmitype/StillImage" />
        <dc:title></dc:title>
      </cc:Work>
    </rdf:RDF>
  </metadata>
  <g
     inkscape:label="Capa 1"
     inkscape:groupmode="layer"
     id="layer1"
     transform="translate(0,-282.1833257)">
    <g
       id="g9491">
      <rect
         y="282.1833191"
         x="7.105427358e-015"
         height="14.8166666"
         width="14.8166666"
         id="rect9481"
         style="opacity:1;fill:none;fill-opacity:0.6171284993;fill-rule:nonzero;stroke:none;stroke-width:0.1322916597;stroke-linecap:round;stroke-linejoin:round;stroke-miterlimit:4;stroke-dasharray:none;stroke-dashoffset:0;stroke-opacity:1" />
      <g
         transform="translate(-4.409947223,-6.347651306)"
         id="g9479">
        <path
           id="path5739"
           d="M 12.74258915,301.454145 H 8.634516963 a 1.729714605,1.729714605 0 0 1 -1.729714605,-1.7297146 v -8.648573 h 8.648573022 a 1.729714605,1.729714605 0 0 1 1.72971461,1.7297146 v 4.1080722 a 4.540500838,4.540500838 0 0 1 -4.54050084,4.5405008 z"
           class="cls-1"
           style="fill:#efefef;stroke-width:0.2645833194"
           inkscape:connector-curvature="0" />
        <circle
           transform="rotate(-44.75)"
           r="0.9945858717"
           cy="217.0199738"
           cx="-196.6700439"
           class="cls-2"
           id="circle5741"
           style="fill:#709302;stroke-width:0.2645833194" />
        <circle
           transform="rotate(-44.75)"
           r="0.9945858717"
           cy="215.4821472"
           cx="-199.9764862"
           class="cls-3"
           id="circle5745"
           style="fill:#e28c05;stroke-width:0.2645833194" />
        <circle
           transform="rotate(-44.75)"
           r="0.9945858717"
           cy="217.0491791"
           cx="-203.3312225"
           class="cls-4"
           id="circle5749"
           style="fill:#00b5e1;stroke-width:0.2645833194" />
        <path
           d="m 10.81611951,294.9677153 a 2.758894795,2.758894795 0 1 0 3.89185786,0.017297 v 0 a 2.758894795,2.758894795 0 0 0 -3.89185786,-0.017297 z m 0.41296936,0.4064829 a 2.175116116,2.175116116 0 0 1 3.07672985,0.012973 v 0 a 2.175116116,2.175116116 0 0 1 -0.0129729,3.0767298 v 0 a 2.177278259,2.177278259 0 0 1 -3.06375695,-3.0897028 z"
           class="cls-3"
           id="path5753"
           style="fill:#e28c05;stroke-width:0.2645833194"
           inkscape:connector-curvature="0" />
        <path
           d="m 9.181539205,298.6757909 a 0.2162143256,0.2162143256 0 0 0 -0.03675644,0.2616194 4.108072187,4.108072187 0 1 0 5.662653185,-5.6215725 0.2162143256,0.2162143256 0 0 0 -0.26378147,0.034594 l -0.22918719,0.227025 a 0.2162143256,0.2162143256 0 0 0 0.03027,0.330808 3.891857861,3.891857861 0 0 1 0.57729225,0.4778336 c 1.39674454,1.4097174 1.4745817,3.5978064 0.17297146,4.8864438 -1.30161024,1.2886374 -3.48537493,1.2021516 -4.88211947,-0.1967551 a 3.891857861,3.891857861 0 0 1 -0.473509376,-0.5816165 0.2162143256,0.2162143256 0 0 0 -0.330807917,-0.032432 z"
           class="cls-2"
           id="path5755"
           style="fill:#709302;stroke-width:0.2645833194"
           inkscape:connector-curvature="0" />
      </g>
    </g>
  </g>
</svg>
