<?xml version="1.0" encoding="UTF-8" standalone="no"?>
<!-- Created with Inkscape (http://www.inkscape.org/) -->

<svg
   xmlns:dc="http://purl.org/dc/elements/1.1/"
   xmlns:cc="http://creativecommons.org/ns#"
   xmlns:rdf="http://www.w3.org/1999/02/22-rdf-syntax-ns#"
   xmlns:svg="http://www.w3.org/2000/svg"
   xmlns="http://www.w3.org/2000/svg"
   xmlns:sodipodi="http://sodipodi.sourceforge.net/DTD/sodipodi-0.dtd"
   xmlns:inkscape="http://www.inkscape.org/namespaces/inkscape"
   width="24"
   height="24"
   viewBox="0 0 6.349999854 6.350000179"
   version="1.1"
   id="svg20037"
   inkscape:version="0.92.2 (5c3e80d, 2017-08-06)"
   sodipodi:docname="voucher.svg">
  <defs
     id="defs20031" />
  <sodipodi:namedview
     id="base"
     pagecolor="#ffffff"
     bordercolor="#666666"
     borderopacity="1.0"
     inkscape:pageopacity="0.0"
     inkscape:pageshadow="2"
     inkscape:zoom="5.599999988"
     inkscape:cx="-76.17800764"
     inkscape:cy="-9.464581153"
     inkscape:document-units="px"
     inkscape:current-layer="layer1"
     showgrid="false"
     units="px"
     inkscape:window-width="1920"
     inkscape:window-height="1017"
     inkscape:window-x="1912"
     inkscape:window-y="-8"
     inkscape:window-maximized="1" />
  <metadata
     id="metadata20034">
    <rdf:RDF>
      <cc:Work
         rdf:about="">
        <dc:format>image/svg+xml</dc:format>
        <dc:type
           rdf:resource="http://purl.org/dc/dcmitype/StillImage" />
        <dc:title></dc:title>
      </cc:Work>
    </rdf:RDF>
  </metadata>
  <g
     inkscape:label="Capa 1"
     inkscape:groupmode="layer"
     id="layer1"
     transform="translate(0,-290.649984)">
    <g
       style="stroke-width:1"
       id="g9899"
       transform="matrix(0.2645833333,0,0,0.2645833333,0,290.649984)">
      <g
         style="stroke-width:1"
         id="g9889">
        <path
           inkscape:connector-curvature="0"
           style="fill:none;stroke-width:1"
           d="M 0,0 H 24 V 24 H 0 Z"
           id="path9887" />
      </g>
      <g
         style="stroke-width:1"
         id="g9897">
        <g
           style="stroke-width:1"
           id="g9891" />
        <g
           style="stroke-width:1"
           id="g9895">
          <path
             inkscape:connector-curvature="0"
             style="fill:#333333;fill-opacity:1;stroke-width:1"
             id="path9893"
             transform="translate(3059.999988,-299.8418085)"
             d="m -3056,303.8417969 c -1.1,0 -1.990234,0.9 -1.990234,2 v 4 c 1.1,0 1.990234,0.9 1.990234,2 0,1.1 -0.89,2 -2,2 v 4 c 0,1.1 0.9,2 2,2 h 16 c 1.1,0 2,-0.9 2,-2 v -4 c -1.1,0 -2,-0.9 -2,-2 0,-1.1 0.9,-2 2,-2 v -4 c 0,-1.1 -0.9,-2 -2,-2 z m 0,2 h 16 v 2.5390625 c -1.19,0.69 -2,1.9909375 -2,3.4609375 0,1.47 0.81,2.7709375 2,3.4609375 v 2.5390625 h -16 v -2.5390625 c 1.19,-0.69 2,-1.9909375 2,-3.4609375 0,-1.48 -0.800234,-2.7709375 -1.990234,-3.4609375 z m 4.082031,4.4101562 a 1.590990302,1.590990302 0 0 0 -1.589843,1.5917969 1.590990302,1.590990302 0 0 0 1.589843,1.5898438 1.590990302,1.590990302 0 0 0 1.591797,-1.5898438 1.590990302,1.590990302 0 0 0 -1.591797,-1.5917969 z m 3.890625,0 a 1.590990302,1.590990302 0 0 0 -1.591797,1.5917969 1.590990302,1.590990302 0 0 0 1.591797,1.5898438 1.590990302,1.590990302 0 0 0 1.589844,-1.5898438 1.590990302,1.590990302 0 0 0 -1.589844,-1.5917969 z m 3.888672,0 a 1.590990302,1.590990302 0 0 0 -1.591797,1.5917969 1.590990302,1.590990302 0 0 0 1.591797,1.5898438 1.590990302,1.590990302 0 0 0 1.589844,-1.5898438 1.590990302,1.590990302 0 0 0 -1.589844,-1.5917969 z" />
        </g>
      </g>
    </g>
  </g>
</svg>
